<svg viewBox="0 0 860 380" xmlns="http://www.w3.org/2000/svg" font-family="'Open Sans',sans-serif">
<defs>
  <pattern id="g" width="32" height="32" patternUnits="userSpaceOnUse">
    <path d="M32 0L0 0 0 32" fill="none" stroke="#008B9A" stroke-width="0.25" opacity="0.12"/>
  </pattern>
  <filter id="glow"><feGaussianBlur stdDeviation="2" result="b"/><feMerge><feMergeNode in="b"/><feMergeNode in="SourceGraphic"/></feMerge></filter>
</defs>
<rect width="860" height="380" fill="#020406"/>
<rect width="860" height="380" fill="url(#g)"/>

<text x="430" y="30" text-anchor="middle" fill="#c4d8e8" font-size="15" font-weight="600" letter-spacing="1">craneIQ Antisway</text>
<text x="430" y="46" text-anchor="middle" fill="#3a5a78" font-size="9" letter-spacing="3" font-family="'Share Tech Mono',monospace">OPEN-LOOP · ANY CRANE WITH TRAVEL VFDs · COMMISSIONS IN UNDER A DAY</text>

<!-- Runway -->
<rect x="60" y="80" width="740" height="16" rx="3" fill="#F5C518" stroke="#D4A017" stroke-width="2"/>
<clipPath id="cn"><rect x="60" y="80" width="740" height="16" rx="3"/></clipPath>
<g clip-path="url(#cn)" opacity="0.2">
  <line x1="60" y1="80" x2="78" y2="96" stroke="#020406" stroke-width="6"/><line x1="86" y1="80" x2="104" y2="96" stroke="#020406" stroke-width="6"/>
  <line x1="112" y1="80" x2="130" y2="96" stroke="#020406" stroke-width="6"/><line x1="138" y1="80" x2="156" y2="96" stroke="#020406" stroke-width="6"/>
  <line x1="164" y1="80" x2="182" y2="96" stroke="#020406" stroke-width="6"/><line x1="190" y1="80" x2="208" y2="96" stroke="#020406" stroke-width="6"/>
  <line x1="216" y1="80" x2="234" y2="96" stroke="#020406" stroke-width="6"/><line x1="242" y1="80" x2="260" y2="96" stroke="#020406" stroke-width="6"/>
  <line x1="268" y1="80" x2="286" y2="96" stroke="#020406" stroke-width="6"/><line x1="294" y1="80" x2="312" y2="96" stroke="#020406" stroke-width="6"/>
  <line x1="320" y1="80" x2="338" y2="96" stroke="#020406" stroke-width="6"/><line x1="346" y1="80" x2="364" y2="96" stroke="#020406" stroke-width="6"/>
  <line x1="372" y1="80" x2="390" y2="96" stroke="#020406" stroke-width="6"/><line x1="398" y1="80" x2="416" y2="96" stroke="#020406" stroke-width="6"/>
  <line x1="424" y1="80" x2="442" y2="96" stroke="#020406" stroke-width="6"/><line x1="450" y1="80" x2="468" y2="96" stroke="#020406" stroke-width="6"/>
  <line x1="476" y1="80" x2="494" y2="96" stroke="#020406" stroke-width="6"/><line x1="502" y1="80" x2="520" y2="96" stroke="#020406" stroke-width="6"/>
  <line x1="528" y1="80" x2="546" y2="96" stroke="#020406" stroke-width="6"/><line x1="554" y1="80" x2="572" y2="96" stroke="#020406" stroke-width="6"/>
  <line x1="580" y1="80" x2="598" y2="96" stroke="#020406" stroke-width="6"/><line x1="606" y1="80" x2="624" y2="96" stroke="#020406" stroke-width="6"/>
  <line x1="632" y1="80" x2="650" y2="96" stroke="#020406" stroke-width="6"/><line x1="658" y1="80" x2="676" y2="96" stroke="#020406" stroke-width="6"/>
  <line x1="684" y1="80" x2="702" y2="96" stroke="#020406" stroke-width="6"/><line x1="710" y1="80" x2="728" y2="96" stroke="#020406" stroke-width="6"/>
  <line x1="736" y1="80" x2="754" y2="96" stroke="#020406" stroke-width="6"/><line x1="762" y1="80" x2="780" y2="96" stroke="#020406" stroke-width="6"/>
</g>
<rect x="54" y="70" width="12" height="40" rx="3" fill="#D4A017"/>
<rect x="794" y="70" width="12" height="40" rx="3" fill="#D4A017"/>

<!-- Trolley -->
<rect x="360" y="66" width="140" height="30" rx="5" fill="#F5C518" stroke="#D4A017" stroke-width="2"/>
<circle cx="380" cy="66" r="7" fill="#D4A017"/><circle cx="480" cy="66" r="7" fill="#D4A017"/>
<rect x="378" y="72" width="104" height="18" rx="3" fill="#D4A017" stroke="#B8860B" stroke-width="1.5"/>
<ellipse cx="430" cy="81" rx="10" ry="11" fill="#B8860B"/><ellipse cx="430" cy="81" rx="6" ry="7" fill="#D4A017"/>
<!-- craneIQ unit -->
<rect x="378" y="74" width="44" height="14" rx="2" fill="#008B9A" filter="url(#glow)"/>
<rect x="380" y="76" width="40" height="10" rx="1" fill="#005f6b"/>
<text x="400" y="84" text-anchor="middle" fill="#4ccc80" font-size="6.5" font-weight="600" letter-spacing="0.5" font-family="'Share Tech Mono',monospace">craneIQ</text>
<circle cx="416" cy="79" r="2.5" fill="#4ccc80" filter="url(#glow)"/>

<!-- Rope -->
<line x1="430" y1="96" x2="430" y2="218" stroke="#92b0c4" stroke-width="2" stroke-linecap="round"/>
<!-- Crosshair -->
<circle cx="430" cy="222" r="12" fill="none" stroke="#008B9A" stroke-width="1.8" filter="url(#glow)"/>
<circle cx="430" cy="222" r="3.5" fill="#008B9A" opacity="0.85"/>
<line x1="412" y1="222" x2="418" y2="222" stroke="#008B9A" stroke-width="1.5"/>
<line x1="442" y1="222" x2="448" y2="222" stroke="#008B9A" stroke-width="1.5"/>
<line x1="430" y1="204" x2="430" y2="210" stroke="#008B9A" stroke-width="1.5"/>
<line x1="430" y1="234" x2="430" y2="240" stroke="#008B9A" stroke-width="1.5"/>
<!-- Load -->
<rect x="394" y="234" width="72" height="58" rx="3" fill="#0b1722" stroke="#008B9A" stroke-width="1.5"/>
<rect x="400" y="240" width="60" height="46" rx="2" fill="#07101a"/>
<ellipse cx="430" cy="294" rx="38" ry="5" fill="#000" opacity="0.4"/>

<!-- VFD units -->
<rect x="72" y="120" width="82" height="58" rx="3" fill="#0b1722" stroke="#008B9A" stroke-width="1.5" filter="url(#glow)"/>
<text x="113" y="138" text-anchor="middle" fill="#008B9A" font-size="9" letter-spacing="1.5" font-family="'Share Tech Mono',monospace">VFD</text>
<rect x="84" y="145" width="58" height="3" rx="1" fill="#008B9A" opacity="0.6"/>
<rect x="84" y="152" width="46" height="3" rx="1" fill="#008B9A" opacity="0.4"/>
<rect x="84" y="159" width="52" height="3" rx="1" fill="#008B9A" opacity="0.3"/>
<text x="113" y="190" text-anchor="middle" fill="#008B9A" font-size="8" font-family="'Share Tech Mono',monospace">BRIDGE</text>

<rect x="706" y="120" width="82" height="58" rx="3" fill="#0b1722" stroke="#008B9A" stroke-width="1.5" filter="url(#glow)"/>
<text x="747" y="138" text-anchor="middle" fill="#008B9A" font-size="9" letter-spacing="1.5" font-family="'Share Tech Mono',monospace">VFD</text>
<rect x="718" y="145" width="58" height="3" rx="1" fill="#008B9A" opacity="0.6"/>
<rect x="718" y="152" width="46" height="3" rx="1" fill="#008B9A" opacity="0.4"/>
<rect x="718" y="159" width="52" height="3" rx="1" fill="#008B9A" opacity="0.3"/>
<text x="747" y="190" text-anchor="middle" fill="#008B9A" font-size="8" font-family="'Share Tech Mono',monospace">TRAVEL</text>

<!-- Connection lines -->
<line x1="378" y1="79" x2="154" y2="140" stroke="#008B9A" stroke-width="0.8" stroke-dasharray="4 3" opacity="0.6"/>
<line x1="422" y1="79" x2="706" y2="140" stroke="#008B9A" stroke-width="0.8" stroke-dasharray="4 3" opacity="0.6"/>

<!-- NO SENSORS badge -->
<rect x="42" y="216" width="148" height="42" rx="3" fill="#020406" stroke="#008B9A" stroke-width="1.8"/>
<rect x="42" y="216" width="148" height="4" rx="2" fill="#008B9A"/>
<circle cx="64" cy="237" r="11" fill="#008B9A" opacity="0.12" stroke="#008B9A" stroke-width="1.2"/>
<text x="64" y="241" text-anchor="middle" fill="#4ccc80" font-size="11">✓</text>
<text x="130" y="232" text-anchor="middle" fill="#c4d8e8" font-size="11" font-weight="600">NO SENSORS</text>
<text x="130" y="246" text-anchor="middle" fill="#3a5a78" font-size="8" letter-spacing="0.5">needed</text>

<!-- NO ENCODERS badge -->
<rect x="670" y="216" width="148" height="42" rx="3" fill="#020406" stroke="#008B9A" stroke-width="1.8"/>
<rect x="670" y="216" width="148" height="4" rx="2" fill="#008B9A"/>
<circle cx="692" cy="237" r="11" fill="#008B9A" opacity="0.12" stroke="#008B9A" stroke-width="1.2"/>
<text x="692" y="241" text-anchor="middle" fill="#4ccc80" font-size="11">✓</text>
<text x="758" y="232" text-anchor="middle" fill="#c4d8e8" font-size="11" font-weight="600">NO ENCODERS</text>
<text x="758" y="246" text-anchor="middle" fill="#3a5a78" font-size="8" letter-spacing="0.5">needed</text>

<!-- Bottom pill -->
<rect x="270" y="324" width="320" height="24" rx="3" fill="#071a15" stroke="#008B9A" stroke-width="1.2"/>
<text x="430" y="340" text-anchor="middle" fill="#008B9A" font-size="9" letter-spacing="1.5" font-family="'Share Tech Mono',monospace">USES EXISTING VFDs ONLY</text>
</svg>
