<svg viewBox="0 0 900 500" xmlns="http://www.w3.org/2000/svg" font-family="'Share Tech Mono', 'Courier New', monospace">
  <defs>
    <pattern id="grid" width="40" height="40" patternUnits="userSpaceOnUse">
      <path d="M 40 0 L 0 0 0 40" fill="none" stroke="#008B9A" stroke-width="0.3" opacity="0.15"/>
    </pattern>
    <filter id="glow"><feGaussianBlur stdDeviation="3" result="blur"/><feMerge><feMergeNode in="blur"/><feMergeNode in="SourceGraphic"/></feMerge></filter>
    <filter id="glows"><feGaussianBlur stdDeviation="1.5" result="blur"/><feMerge><feMergeNode in="blur"/><feMergeNode in="SourceGraphic"/></feMerge></filter>
  </defs>
  <rect width="900" height="500" fill="#020406"/>
  <rect width="900" height="500" fill="url(#grid)"/>
  <line x1="450" y1="20" x2="450" y2="480" stroke="#162840" stroke-width="1.5" stroke-dasharray="6 4"/>

  <!-- ── LEFT: WITHOUT ANTISWAY ── -->
  <rect x="30" y="24" width="180" height="28" rx="3" fill="#07101a" stroke="#162840" stroke-width="1"/>
  <text x="120" y="43" text-anchor="middle" fill="#3a5a78" font-size="10" letter-spacing="2">WITHOUT ANTISWAY</text>
  <rect x="20" y="60" width="410" height="400" rx="4" fill="#07101a" stroke="#0e1d2c" stroke-width="1.5"/>
  <rect x="40" y="100" width="370" height="20" rx="3" fill="#F5C518" stroke="#D4A017" stroke-width="1.5"/>
  <clipPath id="cl"><rect x="40" y="100" width="370" height="20" rx="3"/></clipPath>
  <g clip-path="url(#cl)" opacity="0.2">
    <line x1="40" y1="100" x2="60" y2="120" stroke="#020406" stroke-width="7"/><line x1="70" y1="100" x2="90" y2="120" stroke="#020406" stroke-width="7"/>
    <line x1="100" y1="100" x2="120" y2="120" stroke="#020406" stroke-width="7"/><line x1="130" y1="100" x2="150" y2="120" stroke="#020406" stroke-width="7"/>
    <line x1="160" y1="100" x2="180" y2="120" stroke="#020406" stroke-width="7"/><line x1="190" y1="100" x2="210" y2="120" stroke="#020406" stroke-width="7"/>
    <line x1="220" y1="100" x2="240" y2="120" stroke="#020406" stroke-width="7"/><line x1="250" y1="100" x2="270" y2="120" stroke="#020406" stroke-width="7"/>
    <line x1="280" y1="100" x2="300" y2="120" stroke="#020406" stroke-width="7"/><line x1="310" y1="100" x2="330" y2="120" stroke="#020406" stroke-width="7"/>
    <line x1="340" y1="100" x2="360" y2="120" stroke="#020406" stroke-width="7"/><line x1="370" y1="100" x2="390" y2="120" stroke="#020406" stroke-width="7"/>
  </g>
  <rect x="36" y="90" width="10" height="40" rx="2" fill="#D4A017"/>
  <rect x="404" y="90" width="10" height="40" rx="2" fill="#D4A017"/>
  <rect x="150" y="86" width="80" height="26" rx="4" fill="#F5C518" stroke="#D4A017" stroke-width="1.5"/>
  <circle cx="166" cy="86" r="5" fill="#D4A017"/>
  <circle cx="214" cy="86" r="5" fill="#D4A017"/>
  <rect x="174" y="90" width="32" height="14" rx="2" fill="#008B9A" opacity="0.85"/>
  <text x="190" y="100" text-anchor="middle" fill="#020406" font-size="6" font-weight="bold">craneIQ</text>
  <!-- Rope angled — sway -->
  <line x1="190" y1="112" x2="152" y2="285" stroke="#92b0c4" stroke-width="2" stroke-linecap="round"/>
  <!-- Crosshair at end of rope — swung off centre, red -->
  <circle cx="152" cy="285" r="16" fill="none" stroke="#cc3344" stroke-width="2.2"/>
  <circle cx="152" cy="285" r="5" fill="#cc3344" opacity="0.85"/>
  <line x1="126" y1="285" x2="136" y2="285" stroke="#cc3344" stroke-width="2"/>
  <line x1="168" y1="285" x2="178" y2="285" stroke="#cc3344" stroke-width="2"/>
  <line x1="152" y1="259" x2="152" y2="269" stroke="#cc3344" stroke-width="2"/>
  <line x1="152" y1="301" x2="152" y2="311" stroke="#cc3344" stroke-width="2"/>
  <!-- Sway arc -->
  <path d="M 190 118 Q 165 205 152 285" fill="none" stroke="#cc3344" stroke-width="1" stroke-dasharray="4 3" opacity="0.5"/>
  <path d="M 114 240 L 130 230 L 128 246 Z" fill="#cc3344" opacity="0.7"/>
  <path d="M 194 238 L 178 228 L 180 244 Z" fill="#cc3344" opacity="0.7"/>
  <text x="152" y="258" text-anchor="middle" fill="#cc3344" font-size="9" letter-spacing="1">SWING</text>
  <!-- Load box left -->
  <rect x="115" y="302" width="74" height="58" rx="3" fill="#1c3450" stroke="#3a5a78" stroke-width="1.5"/>
  <rect x="123" y="310" width="58" height="42" rx="2" fill="#162840"/>
  <ellipse cx="152" cy="363" rx="38" ry="6" fill="#000" opacity="0.3"/>
  <!-- Sway badge -->
  <rect x="48" y="308" width="76" height="28" rx="3" fill="#0e1d2c" stroke="#cc3344" stroke-width="1.2"/>
  <text x="86" y="320" text-anchor="middle" fill="#cc3344" font-size="8" letter-spacing="1">SWAY</text>
  <text x="86" y="331" text-anchor="middle" fill="#cc3344" font-size="11" font-weight="bold">18.4°</text>
  <!-- Floor target zone left — missed -->
  <rect x="115" y="394" width="74" height="5" rx="2" fill="#1c3450"/>
  <rect x="149" y="388" width="6" height="16" rx="1" fill="#1c3450"/>
  <text x="152" y="383" text-anchor="middle" fill="#cc3344" font-size="18" font-weight="bold">✕</text>
  <text x="152" y="418" text-anchor="middle" fill="#3a5a78" font-size="8" letter-spacing="1">MISSED TARGET</text>

  <!-- ── RIGHT: WITH ANTISWAY ── -->
  <rect x="692" y="24" width="184" height="28" rx="3" fill="#071a15" stroke="#008B9A" stroke-width="1"/>
  <text x="784" y="43" text-anchor="middle" fill="#008B9A" font-size="10" letter-spacing="2">ANTISWAY ACTIVE</text>
  <rect x="470" y="60" width="410" height="400" rx="4" fill="#07101a" stroke="#0e1d2c" stroke-width="1.5"/>
  <rect x="490" y="100" width="370" height="20" rx="3" fill="#F5C518" stroke="#D4A017" stroke-width="1.5"/>
  <clipPath id="cr"><rect x="490" y="100" width="370" height="20" rx="3"/></clipPath>
  <g clip-path="url(#cr)" opacity="0.2">
    <line x1="490" y1="100" x2="510" y2="120" stroke="#020406" stroke-width="7"/><line x1="520" y1="100" x2="540" y2="120" stroke="#020406" stroke-width="7"/>
    <line x1="550" y1="100" x2="570" y2="120" stroke="#020406" stroke-width="7"/><line x1="580" y1="100" x2="600" y2="120" stroke="#020406" stroke-width="7"/>
    <line x1="610" y1="100" x2="630" y2="120" stroke="#020406" stroke-width="7"/><line x1="640" y1="100" x2="660" y2="120" stroke="#020406" stroke-width="7"/>
    <line x1="670" y1="100" x2="690" y2="120" stroke="#020406" stroke-width="7"/><line x1="700" y1="100" x2="720" y2="120" stroke="#020406" stroke-width="7"/>
    <line x1="730" y1="100" x2="750" y2="120" stroke="#020406" stroke-width="7"/><line x1="760" y1="100" x2="780" y2="120" stroke="#020406" stroke-width="7"/>
    <line x1="790" y1="100" x2="810" y2="120" stroke="#020406" stroke-width="7"/><line x1="820" y1="100" x2="840" y2="120" stroke="#020406" stroke-width="7"/>
  </g>
  <rect x="486" y="90" width="10" height="40" rx="2" fill="#D4A017"/>
  <rect x="854" y="90" width="10" height="40" rx="2" fill="#D4A017"/>
  <rect x="600" y="86" width="80" height="26" rx="4" fill="#F5C518" stroke="#D4A017" stroke-width="1.5"/>
  <circle cx="616" cy="86" r="5" fill="#D4A017"/>
  <circle cx="664" cy="86" r="5" fill="#D4A017"/>
  <rect x="624" y="90" width="32" height="14" rx="2" fill="#008B9A" opacity="0.9" filter="url(#glows)"/>
  <text x="640" y="100" text-anchor="middle" fill="#020406" font-size="6" font-weight="bold">craneIQ</text>
  <!-- Rope perfectly vertical -->
  <line x1="640" y1="112" x2="640" y2="285" stroke="#008B9A" stroke-width="2.5" stroke-linecap="round" filter="url(#glow)"/>
  <!-- Vertical guide dashed -->
  <line x1="640" y1="118" x2="640" y2="402" stroke="#008B9A" stroke-width="1" stroke-dasharray="3 6" opacity="0.25"/>
  <!-- Crosshair at end of rope — centred, teal, glowing -->
  <g filter="url(#glows)">
    <circle cx="640" cy="285" r="16" fill="none" stroke="#008B9A" stroke-width="2.5" opacity="0.95"/>
    <circle cx="640" cy="285" r="5" fill="#008B9A" opacity="0.9"/>
    <line x1="614" y1="285" x2="624" y2="285" stroke="#008B9A" stroke-width="2.2"/>
    <line x1="656" y1="285" x2="666" y2="285" stroke="#008B9A" stroke-width="2.2"/>
    <line x1="640" y1="259" x2="640" y2="269" stroke="#008B9A" stroke-width="2.2"/>
    <line x1="640" y1="301" x2="640" y2="311" stroke="#008B9A" stroke-width="2.2"/>
  </g>
  <!-- Load box right -->
  <rect x="603" y="302" width="74" height="58" rx="3" fill="#071a15" stroke="#008B9A" stroke-width="1.8"/>
  <rect x="611" y="310" width="58" height="42" rx="2" fill="#0e1d2c"/>
  <ellipse cx="640" cy="363" rx="38" ry="6" fill="#000" opacity="0.3"/>
  <!-- Sway badge right — zero -->
  <rect x="502" y="308" width="76" height="28" rx="3" fill="#071a15" stroke="#008B9A" stroke-width="1.2"/>
  <text x="540" y="320" text-anchor="middle" fill="#008B9A" font-size="8" letter-spacing="1">SWAY</text>
  <text x="540" y="331" text-anchor="middle" fill="#4ccc80" font-size="11" font-weight="bold">0.0°</text>
  <!-- Target zone right — hit -->
  <rect x="603" y="394" width="74" height="5" rx="2" fill="#008B9A" opacity="0.5"/>
  <rect x="637" y="388" width="6" height="16" rx="1" fill="#008B9A" opacity="0.5"/>
  <text x="640" y="383" text-anchor="middle" fill="#4ccc80" font-size="18" font-weight="bold" filter="url(#glow)">✓</text>
  <text x="640" y="418" text-anchor="middle" fill="#008B9A" font-size="8" letter-spacing="1">ON TARGET</text>

  <text x="450" y="468" text-anchor="middle" fill="#3a5a78" font-size="8" letter-spacing="3">craneIQ ANTISWAY · NO SENSORS · NO ENCODERS · COMMISSIONS IN UNDER A DAY</text>
</svg>
