<svg viewBox="0 0 900 440" xmlns="http://www.w3.org/2000/svg" font-family="'Open Sans',sans-serif">
<defs>
  <pattern id="g" width="32" height="32" patternUnits="userSpaceOnUse">
    <path d="M32 0L0 0 0 32" fill="none" stroke="#008B9A" stroke-width="0.25" opacity="0.12"/>
  </pattern>
  <filter id="glow"><feGaussianBlur stdDeviation="2" result="b"/><feMerge><feMergeNode in="b"/><feMergeNode in="SourceGraphic"/></feMerge></filter>
</defs>
<rect width="900" height="440" fill="#020406"/>
<rect width="900" height="440" fill="url(#g)"/>

<!-- Divider -->
<line x1="450" y1="16" x2="450" y2="424" stroke="#162840" stroke-width="1" stroke-dasharray="5 4"/>

<!-- LEFT PANEL — Without -->
<rect x="16" y="20" width="164" height="22" rx="2" fill="#07101a" stroke="#162840" stroke-width="1"/>
<text x="98" y="35" text-anchor="middle" fill="#3a5a78" font-size="8" letter-spacing="2" font-family="'Share Tech Mono',monospace">WITHOUT ANTISWAY</text>

<!-- Runway left -->
<rect x="30" y="65" width="400" height="14" rx="3" fill="#F5C518" stroke="#D4A017" stroke-width="1.5"/>
<clipPath id="cl"><rect x="30" y="65" width="400" height="14" rx="3"/></clipPath>
<g clip-path="url(#cl)" opacity="0.2">
  <line x1="30" y1="65" x2="46" y2="79" stroke="#020406" stroke-width="5"/><line x1="52" y1="65" x2="68" y2="79" stroke="#020406" stroke-width="5"/>
  <line x1="74" y1="65" x2="90" y2="79" stroke="#020406" stroke-width="5"/><line x1="96" y1="65" x2="112" y2="79" stroke="#020406" stroke-width="5"/>
  <line x1="118" y1="65" x2="134" y2="79" stroke="#020406" stroke-width="5"/><line x1="140" y1="65" x2="156" y2="79" stroke="#020406" stroke-width="5"/>
  <line x1="162" y1="65" x2="178" y2="79" stroke="#020406" stroke-width="5"/><line x1="184" y1="65" x2="200" y2="79" stroke="#020406" stroke-width="5"/>
  <line x1="206" y1="65" x2="222" y2="79" stroke="#020406" stroke-width="5"/><line x1="228" y1="65" x2="244" y2="79" stroke="#020406" stroke-width="5"/>
  <line x1="250" y1="65" x2="266" y2="79" stroke="#020406" stroke-width="5"/><line x1="272" y1="65" x2="288" y2="79" stroke="#020406" stroke-width="5"/>
  <line x1="294" y1="65" x2="310" y2="79" stroke="#020406" stroke-width="5"/><line x1="316" y1="65" x2="332" y2="79" stroke="#020406" stroke-width="5"/>
  <line x1="338" y1="65" x2="354" y2="79" stroke="#020406" stroke-width="5"/><line x1="360" y1="65" x2="376" y2="79" stroke="#020406" stroke-width="5"/>
  <line x1="382" y1="65" x2="398" y2="79" stroke="#020406" stroke-width="5"/><line x1="404" y1="65" x2="420" y2="79" stroke="#020406" stroke-width="5"/>
</g>
<!-- End stops left -->
<rect x="26" y="57" width="10" height="34" rx="2" fill="#D4A017"/>
<rect x="424" y="57" width="10" height="34" rx="2" fill="#D4A017"/>
<!-- Trolley left -->
<rect x="170" y="57" width="80" height="22" rx="3" fill="#F5C518" stroke="#D4A017" stroke-width="1.5"/>
<circle cx="184" cy="57" r="5" fill="#D4A017"/><circle cx="236" cy="57" r="5" fill="#D4A017"/>
<!-- craneIQ unit -->
<rect x="190" y="61" width="36" height="12" rx="2" fill="#008B9A" opacity="0.85"/>
<text x="208" y="70" text-anchor="middle" fill="#020406" font-size="6" font-weight="600" font-family="'Share Tech Mono',monospace">craneIQ</text>

<!-- Rope left — angled 18° -->
<line x1="208" y1="79" x2="165" y2="255" stroke="#92b0c4" stroke-width="1.8" stroke-linecap="round"/>
<!-- Sway arc -->
<path d="M208 86 Q185 170 165 255" fill="none" stroke="#cc3344" stroke-width="0.8" stroke-dasharray="3 3" opacity="0.5"/>
<!-- Swing arrows -->
<path d="M 136 190 L 150 183 L 148 196 Z" fill="#cc3344" opacity="0.6"/>
<path d="M 210 190 L 196 183 L 198 196 Z" fill="#cc3344" opacity="0.6"/>
<text x="173" y="212" text-anchor="middle" fill="#cc3344" font-size="8" letter-spacing="0.5" font-family="'Share Tech Mono',monospace">SWING</text>

<!-- Crosshair left — red, off centre -->
<circle cx="165" cy="257" r="13" fill="none" stroke="#cc3344" stroke-width="1.8"/>
<circle cx="165" cy="257" r="4" fill="#cc3344" opacity="0.8"/>
<line x1="146" y1="257" x2="152" y2="257" stroke="#cc3344" stroke-width="1.5"/>
<line x1="178" y1="257" x2="184" y2="257" stroke="#cc3344" stroke-width="1.5"/>
<line x1="165" y1="238" x2="165" y2="244" stroke="#cc3344" stroke-width="1.5"/>
<line x1="165" y1="270" x2="165" y2="276" stroke="#cc3344" stroke-width="1.5"/>

<!-- Load left -->
<rect x="130" y="268" width="70" height="54" rx="3" fill="#1c3450" stroke="#3a5a78" stroke-width="1.5"/>
<rect x="137" y="275" width="56" height="40" rx="2" fill="#162840"/>
<ellipse cx="165" cy="324" rx="36" ry="5" fill="#000" opacity="0.3"/>

<!-- Sway badge left -->
<rect x="42" y="276" width="68" height="24" rx="2" fill="#0e1d2c" stroke="#cc3344" stroke-width="1"/>
<text x="76" y="286" text-anchor="middle" fill="#cc3344" font-size="7" letter-spacing="1" font-family="'Share Tech Mono',monospace">SWAY</text>
<text x="76" y="296" text-anchor="middle" fill="#cc3344" font-size="10" font-weight="600">18.4°</text>

<!-- Miss marker left -->
<text x="165" y="362" text-anchor="middle" fill="#cc3344" font-size="18" font-weight="bold">✕</text>
<text x="165" y="380" text-anchor="middle" fill="#3a5a78" font-size="8" letter-spacing="1" font-family="'Share Tech Mono',monospace">MISSED</text>

<!-- RIGHT PANEL — With Antisway -->
<rect x="720" y="20" width="164" height="22" rx="2" fill="#071a15" stroke="#008B9A" stroke-width="1"/>
<text x="802" y="35" text-anchor="middle" fill="#008B9A" font-size="8" letter-spacing="2" font-family="'Share Tech Mono',monospace">ANTISWAY ACTIVE</text>

<!-- Runway right -->
<rect x="470" y="65" width="400" height="14" rx="3" fill="#F5C518" stroke="#D4A017" stroke-width="1.5"/>
<clipPath id="cr"><rect x="470" y="65" width="400" height="14" rx="3"/></clipPath>
<g clip-path="url(#cr)" opacity="0.2">
  <line x1="470" y1="65" x2="486" y2="79" stroke="#020406" stroke-width="5"/><line x1="492" y1="65" x2="508" y2="79" stroke="#020406" stroke-width="5"/>
  <line x1="514" y1="65" x2="530" y2="79" stroke="#020406" stroke-width="5"/><line x1="536" y1="65" x2="552" y2="79" stroke="#020406" stroke-width="5"/>
  <line x1="558" y1="65" x2="574" y2="79" stroke="#020406" stroke-width="5"/><line x1="580" y1="65" x2="596" y2="79" stroke="#020406" stroke-width="5"/>
  <line x1="602" y1="65" x2="618" y2="79" stroke="#020406" stroke-width="5"/><line x1="624" y1="65" x2="640" y2="79" stroke="#020406" stroke-width="5"/>
  <line x1="646" y1="65" x2="662" y2="79" stroke="#020406" stroke-width="5"/><line x1="668" y1="65" x2="684" y2="79" stroke="#020406" stroke-width="5"/>
  <line x1="690" y1="65" x2="706" y2="79" stroke="#020406" stroke-width="5"/><line x1="712" y1="65" x2="728" y2="79" stroke="#020406" stroke-width="5"/>
  <line x1="734" y1="65" x2="750" y2="79" stroke="#020406" stroke-width="5"/><line x1="756" y1="65" x2="772" y2="79" stroke="#020406" stroke-width="5"/>
  <line x1="778" y1="65" x2="794" y2="79" stroke="#020406" stroke-width="5"/><line x1="800" y1="65" x2="816" y2="79" stroke="#020406" stroke-width="5"/>
  <line x1="822" y1="65" x2="838" y2="79" stroke="#020406" stroke-width="5"/><line x1="844" y1="65" x2="860" y2="79" stroke="#020406" stroke-width="5"/>
</g>
<rect x="466" y="57" width="10" height="34" rx="2" fill="#D4A017"/>
<rect x="864" y="57" width="10" height="34" rx="2" fill="#D4A017"/>
<!-- Trolley right -->
<rect x="650" y="57" width="80" height="22" rx="3" fill="#F5C518" stroke="#D4A017" stroke-width="1.5"/>
<circle cx="664" cy="57" r="5" fill="#D4A017"/><circle cx="716" cy="57" r="5" fill="#D4A017"/>
<rect x="670" y="61" width="36" height="12" rx="2" fill="#008B9A" opacity="0.9" filter="url(#glow)"/>
<text x="688" y="70" text-anchor="middle" fill="#020406" font-size="6" font-weight="600" font-family="'Share Tech Mono',monospace">craneIQ</text>

<!-- Rope right — vertical, teal -->
<line x1="688" y1="79" x2="688" y2="255" stroke="#008B9A" stroke-width="2" stroke-linecap="round" filter="url(#glow)"/>
<!-- Vertical guide -->
<line x1="688" y1="86" x2="688" y2="380" stroke="#008B9A" stroke-width="0.8" stroke-dasharray="3 5" opacity="0.2"/>

<!-- Crosshair right — teal, centred -->
<g filter="url(#glow)">
  <circle cx="688" cy="257" r="13" fill="none" stroke="#008B9A" stroke-width="2"/>
  <circle cx="688" cy="257" r="4" fill="#008B9A" opacity="0.9"/>
  <line x1="669" y1="257" x2="675" y2="257" stroke="#008B9A" stroke-width="1.8"/>
  <line x1="701" y1="257" x2="707" y2="257" stroke="#008B9A" stroke-width="1.8"/>
  <line x1="688" y1="238" x2="688" y2="244" stroke="#008B9A" stroke-width="1.8"/>
  <line x1="688" y1="270" x2="688" y2="276" stroke="#008B9A" stroke-width="1.8"/>
</g>

<!-- Load right -->
<rect x="653" y="268" width="70" height="54" rx="3" fill="#071a15" stroke="#008B9A" stroke-width="1.8"/>
<rect x="660" y="275" width="56" height="40" rx="2" fill="#0e1d2c"/>
<ellipse cx="688" cy="324" rx="36" ry="5" fill="#000" opacity="0.3"/>

<!-- Sway badge right — zero -->
<rect x="790" y="276" width="68" height="24" rx="2" fill="#071a15" stroke="#008B9A" stroke-width="1"/>
<text x="824" y="286" text-anchor="middle" fill="#008B9A" font-size="7" letter-spacing="1" font-family="'Share Tech Mono',monospace">SWAY</text>
<text x="824" y="296" text-anchor="middle" fill="#4ccc80" font-size="10" font-weight="600">0.0°</text>

<!-- On target right -->
<text x="688" y="362" text-anchor="middle" fill="#4ccc80" font-size="18" font-weight="bold" filter="url(#glow)">✓</text>
<text x="688" y="380" text-anchor="middle" fill="#008B9A" font-size="8" letter-spacing="1" font-family="'Share Tech Mono',monospace">ON TARGET</text>

<!-- Caption -->
<text x="450" y="418" text-anchor="middle" fill="#3a5a78" font-size="8" letter-spacing="2" font-family="'Share Tech Mono',monospace">craneIQ ANTISWAY · NO SENSORS · NO ENCODERS · COMMISSIONS IN UNDER A DAY</text>
</svg>
