<svg viewBox="0 0 700 420" xmlns="http://www.w3.org/2000/svg" font-family="'Share Tech Mono', 'Courier New', monospace">
  <defs>
    <pattern id="grid2" width="36" height="36" patternUnits="userSpaceOnUse">
      <path d="M 36 0 L 0 0 0 36" fill="none" stroke="#008B9A" stroke-width="0.3" opacity="0.12"/>
    </pattern>
    <filter id="g2"><feGaussianBlur stdDeviation="3" result="blur"/><feMerge><feMergeNode in="blur"/><feMergeNode in="SourceGraphic"/></feMerge></filter>
    <filter id="g2s"><feGaussianBlur stdDeviation="1.5" result="blur"/><feMerge><feMergeNode in="blur"/><feMergeNode in="SourceGraphic"/></feMerge></filter>
  </defs>
  <rect width="700" height="420" fill="#020406"/>
  <rect width="700" height="420" fill="url(#grid2)"/>
  <ellipse cx="350" cy="180" rx="220" ry="140" fill="#008B9A" opacity="0.04"/>

  <text x="350" y="48" text-anchor="middle" fill="#e4f0f8" font-size="16" font-weight="bold" letter-spacing="2">craneIQ Antisway</text>
  <text x="350" y="66" text-anchor="middle" fill="#3a5a78" font-size="9" letter-spacing="3">OPEN-LOOP ANTI-SWAY · ANY CRANE WITH TRAVEL VFDs · COMMISSIONS IN UNDER A DAY</text>

  <!-- Runway -->
  <rect x="80" y="90" width="540" height="24" rx="4" fill="#F5C518" stroke="#D4A017" stroke-width="2"/>
  <clipPath id="cns"><rect x="80" y="90" width="540" height="24" rx="4"/></clipPath>
  <g clip-path="url(#cns)" opacity="0.2">
    <line x1="80" y1="90" x2="106" y2="114" stroke="#020406" stroke-width="8"/><line x1="116" y1="90" x2="142" y2="114" stroke="#020406" stroke-width="8"/>
    <line x1="152" y1="90" x2="178" y2="114" stroke="#020406" stroke-width="8"/><line x1="188" y1="90" x2="214" y2="114" stroke="#020406" stroke-width="8"/>
    <line x1="224" y1="90" x2="250" y2="114" stroke="#020406" stroke-width="8"/><line x1="260" y1="90" x2="286" y2="114" stroke="#020406" stroke-width="8"/>
    <line x1="296" y1="90" x2="322" y2="114" stroke="#020406" stroke-width="8"/><line x1="332" y1="90" x2="358" y2="114" stroke="#020406" stroke-width="8"/>
    <line x1="368" y1="90" x2="394" y2="114" stroke="#020406" stroke-width="8"/><line x1="404" y1="90" x2="430" y2="114" stroke="#020406" stroke-width="8"/>
    <line x1="440" y1="90" x2="466" y2="114" stroke="#020406" stroke-width="8"/><line x1="476" y1="90" x2="502" y2="114" stroke="#020406" stroke-width="8"/>
    <line x1="512" y1="90" x2="538" y2="114" stroke="#020406" stroke-width="8"/><line x1="548" y1="90" x2="574" y2="114" stroke="#020406" stroke-width="8"/>
    <line x1="584" y1="90" x2="610" y2="114" stroke="#020406" stroke-width="8"/>
  </g>
  <rect x="76" y="78" width="12" height="50" rx="3" fill="#D4A017" stroke="#B8860B" stroke-width="1.5"/>
  <rect x="612" y="78" width="12" height="50" rx="3" fill="#D4A017" stroke="#B8860B" stroke-width="1.5"/>

  <!-- Trolley -->
  <rect x="295" y="72" width="110" height="32" rx="5" fill="#F5C518" stroke="#D4A017" stroke-width="2"/>
  <circle cx="314" cy="72" r="7" fill="#D4A017"/>
  <circle cx="386" cy="72" r="7" fill="#D4A017"/>
  <!-- craneIQ unit -->
  <rect x="328" y="78" width="44" height="20" rx="3" fill="#008B9A" filter="url(#g2s)"/>
  <rect x="330" y="80" width="40" height="16" rx="2" fill="#005f6b"/>
  <text x="350" y="91" text-anchor="middle" fill="#4ccc80" font-size="7" font-weight="bold" letter-spacing="1">craneIQ</text>
  <circle cx="364" cy="84" r="3" fill="#4ccc80" filter="url(#g2s)"/>

  <!-- Hoist rope -->
  <line x1="350" y1="104" x2="350" y2="248" stroke="#92b0c4" stroke-width="2.5" stroke-linecap="round"/>

  <!-- Crosshair target at end of rope -->
  <g filter="url(#g2s)">
    <circle cx="350" cy="252" r="14" fill="none" stroke="#008B9A" stroke-width="2"/>
    <circle cx="350" cy="252" r="4" fill="#008B9A" opacity="0.85"/>
    <line x1="326" y1="252" x2="336" y2="252" stroke="#008B9A" stroke-width="1.8"/>
    <line x1="364" y1="252" x2="374" y2="252" stroke="#008B9A" stroke-width="1.8"/>
    <line x1="350" y1="228" x2="350" y2="238" stroke="#008B9A" stroke-width="1.8"/>
    <line x1="350" y1="266" x2="350" y2="276" stroke="#008B9A" stroke-width="1.8"/>
  </g>

  <!-- Load -->
  <rect x="300" y="275" width="100" height="72" rx="4" fill="#0b1722" stroke="#008B9A" stroke-width="2"/>
  <rect x="310" y="285" width="80" height="52" rx="3" fill="#07101a"/>
  <ellipse cx="350" cy="350" rx="52" ry="8" fill="#000" opacity="0.4"/>

  <!-- VFD units -->
  <rect x="95" y="138" width="64" height="52" rx="4" fill="#0b1722" stroke="#008B9A" stroke-width="1.8" filter="url(#g2s)"/>
  <text x="127" y="156" text-anchor="middle" fill="#008B9A" font-size="7.5" letter-spacing="1">VFD</text>
  <rect x="104" y="161" width="46" height="3" rx="1" fill="#008B9A" opacity="0.6"/>
  <rect x="104" y="168" width="36" height="3" rx="1" fill="#008B9A" opacity="0.4"/>
  <rect x="104" y="175" width="40" height="3" rx="1" fill="#008B9A" opacity="0.3"/>
  <text x="127" y="202" text-anchor="middle" fill="#008B9A" font-size="8" letter-spacing="1">BRIDGE</text>

  <rect x="541" y="138" width="64" height="52" rx="4" fill="#0b1722" stroke="#008B9A" stroke-width="1.8" filter="url(#g2s)"/>
  <text x="573" y="156" text-anchor="middle" fill="#008B9A" font-size="7.5" letter-spacing="1">VFD</text>
  <rect x="550" y="161" width="46" height="3" rx="1" fill="#008B9A" opacity="0.6"/>
  <rect x="550" y="168" width="36" height="3" rx="1" fill="#008B9A" opacity="0.4"/>
  <rect x="550" y="175" width="40" height="3" rx="1" fill="#008B9A" opacity="0.3"/>
  <text x="573" y="202" text-anchor="middle" fill="#008B9A" font-size="8" letter-spacing="1">TRAVEL</text>

  <!-- Connection lines from craneIQ to VFDs -->
  <line x1="328" y1="88" x2="159" y2="153" stroke="#008B9A" stroke-width="1.2" stroke-dasharray="5 3" opacity="0.7"/>
  <line x1="372" y1="88" x2="541" y2="153" stroke="#008B9A" stroke-width="1.2" stroke-dasharray="5 3" opacity="0.7"/>

  <!-- NO SENSORS badge left -->
  <rect x="40" y="228" width="140" height="48" rx="6" fill="#020406" stroke="#008B9A" stroke-width="2"/>
  <rect x="40" y="228" width="140" height="4" rx="2" fill="#008B9A"/>
  <circle cx="64" cy="252" r="12" fill="#008B9A" opacity="0.15" stroke="#008B9A" stroke-width="1.5"/>
  <text x="64" y="257" text-anchor="middle" fill="#4ccc80" font-size="14" font-weight="bold">✓</text>
  <text x="130" y="246" text-anchor="middle" fill="#e4f0f8" font-size="11" font-weight="bold">NO SENSORS</text>
  <text x="130" y="261" text-anchor="middle" fill="#3a5a78" font-size="8" letter-spacing="1">NEEDED</text>

  <!-- NO ENCODERS badge right -->
  <rect x="520" y="228" width="148" height="48" rx="6" fill="#020406" stroke="#008B9A" stroke-width="2"/>
  <rect x="520" y="228" width="148" height="4" rx="2" fill="#008B9A"/>
  <circle cx="544" cy="252" r="12" fill="#008B9A" opacity="0.15" stroke="#008B9A" stroke-width="1.5"/>
  <text x="544" y="257" text-anchor="middle" fill="#4ccc80" font-size="14" font-weight="bold">✓</text>
  <text x="612" y="246" text-anchor="middle" fill="#e4f0f8" font-size="11" font-weight="bold">NO ENCODERS</text>
  <text x="612" y="261" text-anchor="middle" fill="#3a5a78" font-size="8" letter-spacing="1">NEEDED</text>

  <!-- Bottom badge -->
  <rect x="218" y="362" width="264" height="22" rx="4" fill="#071a15" stroke="#008B9A" stroke-width="1.2"/>
  <text x="350" y="377" text-anchor="middle" fill="#008B9A" font-size="9" letter-spacing="2">USES EXISTING VFDs ONLY</text>
</svg>
