<svg viewBox="0 0 860 420" xmlns="http://www.w3.org/2000/svg" font-family="'Open Sans',sans-serif">
<defs>
  <pattern id="g" width="32" height="32" patternUnits="userSpaceOnUse">
    <path d="M32 0L0 0 0 32" fill="none" stroke="#cc3344" stroke-width="0.25" opacity="0.1"/>
  </pattern>
  <filter id="glow"><feGaussianBlur stdDeviation="2" result="b"/><feMerge><feMergeNode in="b"/><feMergeNode in="SourceGraphic"/></feMerge></filter>
  <marker id="arr" markerWidth="6" markerHeight="6" refX="5" refY="3" orient="auto">
    <path d="M0 0 L6 3 L0 6 Z" fill="#008B9A"/>
  </marker>
</defs>
<rect width="860" height="420" fill="#020406"/>
<rect width="860" height="420" fill="url(#g)"/>

<text x="430" y="30" text-anchor="middle" fill="#c4d8e8" font-size="15" font-weight="600" letter-spacing="1">craneIQ Zoning</text>
<text x="430" y="46" text-anchor="middle" fill="#3a5a78" font-size="9" letter-spacing="3" font-family="'Share Tech Mono',monospace">SOFTWARE-DEFINED ZONES · UNLIMITED BOUNDARIES · AUTO DECELERATION &amp; STOP</text>

<!-- Factory floor — top-down -->
<rect x="40" y="64" width="780" height="310" rx="4" fill="#07101a" stroke="#162840" stroke-width="1.5"/>

<!-- Floor grid -->
<line x1="40" y1="128" x2="820" y2="128" stroke="#0e1d2c" stroke-width="1"/>
<line x1="40" y1="192" x2="820" y2="192" stroke="#0e1d2c" stroke-width="1"/>
<line x1="40" y1="256" x2="820" y2="256" stroke="#0e1d2c" stroke-width="1"/>
<line x1="40" y1="320" x2="820" y2="320" stroke="#0e1d2c" stroke-width="1"/>
<line x1="196" y1="64" x2="196" y2="374" stroke="#0e1d2c" stroke-width="1"/>
<line x1="352" y1="64" x2="352" y2="374" stroke="#0e1d2c" stroke-width="1"/>
<line x1="508" y1="64" x2="508" y2="374" stroke="#0e1d2c" stroke-width="1"/>
<line x1="664" y1="64" x2="664" y2="374" stroke="#0e1d2c" stroke-width="1"/>

<!-- ZONE 1 — Machine no-fly -->
<rect x="58" y="280" width="152" height="80" rx="3" fill="#cc3344" opacity="0.07" stroke="#cc3344" stroke-width="1.2" stroke-dasharray="5 3"/>
<rect x="74" y="294" width="120" height="54" rx="2" fill="#0b1722" stroke="#3a5a78" stroke-width="1.2"/>
<rect x="84" y="302" width="100" height="38" rx="2" fill="#07101a"/>
<circle cx="134" cy="321" r="13" fill="#162840" stroke="#3a5a78" stroke-width="1"/>
<circle cx="134" cy="321" r="6" fill="#3a5a78"/>
<circle cx="58" cy="270" r="9" fill="#cc3344" opacity="0.18" stroke="#cc3344" stroke-width="1"/>
<text x="58" y="274" text-anchor="middle" fill="#cc3344" font-size="9" font-weight="600">1</text>
<text x="134" y="272" text-anchor="middle" fill="#cc3344" font-size="7.5" letter-spacing="0.5" font-family="'Share Tech Mono',monospace">NO-FLY ZONE</text>
<text x="134" y="263" text-anchor="middle" fill="#cc3344" font-size="6.5" opacity="0.7" font-family="'Share Tech Mono',monospace">MACHINE CENTRE</text>

<!-- ZONE 2 — Pedestrian walkway vertical -->
<rect x="544" y="66" width="60" height="306" fill="#cc3344" opacity="0.06" stroke="#cc3344" stroke-width="1.2" stroke-dasharray="5 3"/>
<line x1="554" y1="66" x2="554" y2="372" stroke="#cc3344" stroke-width="0.7" stroke-dasharray="8 5" opacity="0.35"/>
<line x1="594" y1="66" x2="594" y2="372" stroke="#cc3344" stroke-width="0.7" stroke-dasharray="8 5" opacity="0.35"/>
<!-- Person icon -->
<circle cx="574" cy="225" r="6" fill="#3a5a78"/>
<line x1="574" y1="231" x2="574" y2="248" stroke="#3a5a78" stroke-width="2.2" stroke-linecap="round"/>
<line x1="574" y1="237" x2="566" y2="245" stroke="#3a5a78" stroke-width="1.8" stroke-linecap="round"/>
<line x1="574" y1="237" x2="582" y2="245" stroke="#3a5a78" stroke-width="1.8" stroke-linecap="round"/>
<line x1="574" y1="248" x2="567" y2="260" stroke="#3a5a78" stroke-width="1.8" stroke-linecap="round"/>
<line x1="574" y1="248" x2="581" y2="260" stroke="#3a5a78" stroke-width="1.8" stroke-linecap="round"/>
<text x="574" y="155" text-anchor="middle" fill="#cc3344" font-size="7.5" font-family="'Share Tech Mono',monospace" transform="rotate(-90,574,155)">PEDESTRIAN ZONE</text>
<circle cx="544" cy="74" r="9" fill="#cc3344" opacity="0.18" stroke="#cc3344" stroke-width="1"/>
<text x="544" y="78" text-anchor="middle" fill="#cc3344" font-size="9" font-weight="600">2</text>

<!-- ZONE 3 — Building wall -->
<rect x="726" y="66" width="82" height="306" fill="#cc3344" opacity="0.09" stroke="#cc3344" stroke-width="1.2" stroke-dasharray="5 3"/>
<text x="767" y="226" text-anchor="middle" fill="#cc3344" font-size="7.5" font-family="'Share Tech Mono',monospace" transform="rotate(-90,767,226)">BUILDING WALL</text>
<line x1="738" y1="70" x2="738" y2="370" stroke="#cc3344" stroke-width="0.5" opacity="0.3"/>
<line x1="752" y1="70" x2="752" y2="370" stroke="#cc3344" stroke-width="0.5" opacity="0.3"/>
<line x1="766" y1="70" x2="766" y2="370" stroke="#cc3344" stroke-width="0.5" opacity="0.3"/>
<circle cx="726" cy="74" r="9" fill="#cc3344" opacity="0.18" stroke="#cc3344" stroke-width="1"/>
<text x="726" y="78" text-anchor="middle" fill="#cc3344" font-size="9" font-weight="600">3</text>

<!-- Crane rails top-down -->
<rect x="40" y="90" width="780" height="9" rx="2" fill="#D4A017" opacity="0.65"/>
<rect x="40" y="120" width="780" height="9" rx="2" fill="#D4A017" opacity="0.65"/>

<!-- Crane bridge top-down -->
<rect x="220" y="82" width="260" height="54" rx="4" fill="#F5C518" stroke="#D4A017" stroke-width="1.5"/>
<rect x="230" y="90" width="240" height="38" rx="3" fill="#D4A017" opacity="0.25"/>
<!-- Trolley top-down + craneIQ unit -->
<rect x="336" y="86" width="36" height="46" rx="3" fill="#F5C518" stroke="#D4A017" stroke-width="1.2"/>
<rect x="340" y="96" width="28" height="28" rx="2" fill="#cc3344" opacity="0.9" filter="url(#glow)"/>
<text x="354" y="114" text-anchor="middle" fill="#fff" font-size="7" font-weight="600" font-family="'Share Tech Mono',monospace">IQ</text>

<!-- Load crosshair top-down — faint, floor position -->
<circle cx="354" cy="195" r="11" fill="none" stroke="#008B9A" stroke-width="1.2" stroke-dasharray="3 2" opacity="0.45"/>
<circle cx="354" cy="195" r="3" fill="#008B9A" opacity="0.5"/>

<!-- Travel direction arrow -->
<line x1="480" y1="110" x2="558" y2="110" stroke="#008B9A" stroke-width="2" marker-end="url(#arr)"/>

<!-- Decel bands -->
<rect x="510" y="82" width="18" height="54" rx="2" fill="#cc7700" opacity="0.18" stroke="#cc7700" stroke-width="0.8" stroke-dasharray="3 2"/>
<text x="519" y="76" text-anchor="middle" fill="#cc7700" font-size="7.5" font-family="'Share Tech Mono',monospace">SLOW</text>
<rect x="528" y="82" width="10" height="54" rx="2" fill="#cc3344" opacity="0.22" stroke="#cc3344" stroke-width="0.8"/>
<text x="533" y="76" text-anchor="middle" fill="#cc3344" font-size="7.5" font-family="'Share Tech Mono',monospace">STOP</text>

<!-- Status badges -->
<rect x="40" y="386" width="120" height="18" rx="2" fill="#071a15" stroke="#cc3344" stroke-width="1"/>
<text x="100" y="399" text-anchor="middle" fill="#cc3344" font-size="8" letter-spacing="1" font-family="'Share Tech Mono',monospace">3 ZONES ACTIVE</text>
<rect x="310" y="382" width="240" height="26" rx="3" fill="#071a15" stroke="#cc3344" stroke-width="1.5"/>
<circle cx="334" cy="395" r="6" fill="#cc3344" opacity="0.15"/>
<text x="334" y="399" text-anchor="middle" fill="#4ccc80" font-size="9">✓</text>
<text x="430" y="399" text-anchor="middle" fill="#c4d8e8" font-size="10" font-weight="600">PROTECTION ACTIVE</text>
<rect x="700" y="386" width="120" height="18" rx="2" fill="#071a15" stroke="#cc3344" stroke-width="1"/>
<text x="760" y="399" text-anchor="middle" fill="#cc3344" font-size="8" letter-spacing="1" font-family="'Share Tech Mono',monospace">RESPONSE &lt;50ms</text>
</svg>
